<svg width="260" height="68" xmlns="http://www.w3.org/2000/svg" xmlns:xlink="http://www.w3.org/1999/xlink"><defs><path id="a" d="M.374.623h9.907v12.68H.374z"/><path id="c" d="M0 .554h17.677v59.017H0z"/></defs><g fill="none" fill-rule="evenodd"><path d="M227.631 62.19c.393.102.616.138.821.22.496.2.653.528.545 1.069-.08.395-.351.56-.721.587-.339.023-.68.035-1.02.022-.391-.014-.781-.06-1.274-.101-.086-.388-.228-.754-.237-1.123-.03-1.304-.008-2.61-.023-3.915-.005-.45-.016-.911-.106-1.35-.159-.76-.578-1.138-1.247-1.197-.727-.065-1.403.116-1.746.793a4.308 4.308 0 0 0-.444 1.62c-.068 1.069-.02 2.146-.02 3.297l1.347.49v1.3c-.998.311-1.936.212-2.986.066-.081-.372-.223-.74-.23-1.109-.028-1.475-.015-2.95-.016-4.425v-1.706l-1.407-.55v-1.085c.14-.098.225-.205.321-.218.393-.047.787-.088 1.181-.091 1.224-.006 2.429.188 3.674-.165 1.075-.305 2.1.236 2.998.928.38-.222.706-.447 1.06-.616.852-.406 1.733-.464 2.65-.204 1.08.306 1.795.983 2.055 2.058.16.653.203 1.343.225 2.019.035 1.072.01 2.148.01 3.287.358.153.674.25.95.414.321.19.481.696.289 1.048-.118.215-.394.465-.617.482-.722.056-1.453.012-2.265.004-.094-.467-.225-.837-.232-1.208-.029-1.304-.004-2.61-.021-3.915-.006-.45-.025-.911-.123-1.348-.165-.74-.604-1.123-1.273-1.17-.724-.05-1.383.136-1.738.815a3.182 3.182 0 0 0-.363 1.295c-.05 1.182-.017 2.368-.017 3.682M247.03 59.422c-.06-.445-.066-.965-.213-1.442-.309-1.01-1.21-1.629-2.158-1.57-.909.057-1.645.674-1.904 1.666a5.513 5.513 0 0 0 .01 2.848c.274 1.028 1.15 1.691 2.098 1.657.973-.035 1.778-.707 2.02-1.752.1-.435.097-.895.147-1.407m-5.905 6.106c.665-.284 1.306-.245 1.894.209.637.492 1.37.511 2.109.43.325-.035.679-.139.94-.323.263-.184.497-.481.616-.779.132-.337.125-.73.204-1.259-.483.14-.79.238-1.1.317-2.315.593-4.215-.417-4.945-2.679a6.254 6.254 0 0 1 .045-4.011c.74-2.17 2.628-3.189 4.849-2.595.662.177 1.218.317 1.932.059.654-.234 1.445-.16 2.181.088.449.986.165 1.654-.848 2.087 0 1.776.032 3.53-.012 5.283a18.645 18.645 0 0 1-.295 2.864c-.087.478-.339.971-.647 1.355-1.318 1.652-4.58 1.939-6.198.585-.542-.455-.648-.69-.725-1.63" fill="#1A4D98"/><g transform="translate(249.524 50.875)"><mask id="b" fill="#fff"><use xlink:href="#a"/></mask><path d="M1.538 2.584C.834 2.256.272 2.059.39 1.31.44 1 .576.78.88.696 1.378.561 2.01.612 3.12.864c.46 1.115-.075 2.41.395 3.687.335-.14.587-.234.828-.352.692-.34 1.427-.354 2.165-.275 1.474.158 2.387 1.034 2.543 2.508.087.841.066 1.697.08 2.547.011.732.004 1.466.004 2.136.425.345.844.563 1.071.91.151.23.028.642.028 1.002-.892.463-1.763.206-2.718.195-.067-.576-.153-1.014-.161-1.454-.022-1.134-.006-2.267-.01-3.401 0-.397.007-.796-.028-1.19-.086-1.02-.519-1.563-1.334-1.72-.893-.174-1.927.269-2.31 1.067-.19.398-.318.862-.336 1.3-.045 1.128-.016 2.26-.016 3.432.248.121.432.235.633.306.538.19.625.602.565 1.09-.037.308-.2.535-.52.58a7.693 7.693 0 0 1-2.096-.01c-.479-.596-.355-1.184-.358-1.738-.013-2.381-.007-4.762-.007-7.142V2.584z" fill="#1A4D98" mask="url(#b)"/></g><path d="M212.123 59.313c.17.665.267 1.345.518 1.962.357.875 1.106 1.27 2.039 1.257.93-.01 1.648-.435 2.039-1.289.546-1.196.552-2.426.023-3.63-.375-.853-1.062-1.31-2.006-1.333-.94-.022-1.677.375-2.07 1.222-.256.553-.359 1.175-.543 1.81m7.065.199c-.113.547-.18 1.233-.4 1.865-.635 1.83-2.184 2.85-4.186 2.836-1.919-.015-3.399-1.016-4.054-2.788-.444-1.202-.499-2.426-.122-3.666.608-2 2.245-3.227 4.295-3.197 2.055.03 3.676 1.29 4.208 3.309.129.488.16 1.002.26 1.64M207.598 54.98l1.694-.584c.399 1.184.431 2.36.127 4.188l-1.25.154c-.17-.388-.326-.682-.427-.996-.324-1-1.052-1.43-2.051-1.458-1.028-.028-1.875.541-2.224 1.515-.373 1.045-.387 2.118.004 3.159.344.914.991 1.527 2.015 1.565.988.038 1.758-.352 2.167-1.31.107-.255.222-.507.3-.684.196-.099.295-.19.395-.194 1.289-.043 1.554.298 1.156 1.447a3.347 3.347 0 0 1-1.326 1.711c-2.612 1.778-6.153.4-6.845-2.68a6.685 6.685 0 0 1-.015-2.865c.494-2.326 2.606-3.73 4.955-3.31.443.08.874.224 1.325.343M199.732 63.117c-.891.258-1.648.275-2.444.003-.321-.779-.27-1.529-.045-2.333.782-.34 1.543-.247 2.33-.091.458.752.316 1.518.16 2.42M236.13 63.122c-.266-1.173-.266-1.173.014-2.39.721-.266 1.476-.204 2.254-.02.396.764.308 1.522.123 2.338-.808.392-1.602.33-2.39.072" fill="#1A4D98"/><g transform="translate(0 .398)"><mask id="d" fill="#fff"><use xlink:href="#c"/></mask><path d="M3.368.554h14.309v.46c-3.592.661-3.821 2.241-3.821 2.241-.26.949-.172 2.989-.172 2.989v36.432C13.08 53.882.38 59.57.38 59.57c-.69 0-.23-.575-.23-.575 7.815-7.872 7.586-13.074 7.586-13.074V4.346c0-2.758-2.932-2.758-2.932-2.758C3.541 1.358 3.368.554 3.368.554" fill="#010101" mask="url(#d)"/></g><path d="M34.687 45.861c-4.793 0-8.677-4.727-8.677-10.559 0-5.831 3.884-10.559 8.677-10.559 4.792 0 8.677 4.728 8.677 10.56 0 5.83-3.885 10.558-8.677 10.558m0-26.003c-7.776 0-14.08 6.882-14.08 15.372s6.304 15.372 14.08 15.372c7.775 0 14.079-6.882 14.079-15.372s-6.304-15.372-14.08-15.372" fill="#010101"/><path d="M64.96 46.32c-4.715 0-8.538-4.869-8.538-10.874 0-6.007 3.823-10.876 8.538-10.876 4.714 0 8.537 4.869 8.537 10.876 0 6.005-3.823 10.874-8.537 10.874m.17-26.06c-3.315 0-6.35 1.328-8.708 3.533V8.451h-5.645v36.72h-3.448v4.569h9.093v-2.67c2.358 2.204 5.393 3.532 8.707 3.532 7.498 0 13.576-6.792 13.576-15.17 0-8.379-6.078-15.171-13.576-15.171" fill="#010101"/><path d="M94.526 46.32c-4.714 0-8.537-4.869-8.537-10.874 0-6.007 3.823-10.876 8.537-10.876s8.537 4.869 8.537 10.876c0 6.005-3.823 10.874-8.537 10.874m.17-26.06c-3.315 0-6.35 1.328-8.707 3.533V8.451h-5.646v36.72h-3.448v4.569h9.094v-2.67c2.357 2.204 5.392 3.532 8.706 3.532 7.498 0 13.577-6.792 13.577-15.17 0-8.379-6.079-15.171-13.577-15.171M114.666 32.386h-3.148v4.597h2.922a12.649 12.649 0 0 1-.121-1.681c0-1.012.125-1.989.347-2.916" fill="#010101"/><path d="M137.278 36.983c.06-.575.095-1.16.095-1.752 0-.973-.088-1.923-.248-2.845-1.239-7.13-7.04-12.528-14.016-12.528-7.877 0-14.263 6.883-14.263 15.373 0 8.49 6.386 15.371 14.263 15.371 3.826 0 8.03-1.265 10.59-3.908l-3.965-3.045c-1.472 1.346-4.629 2.212-6.625 2.212-4.377 0-7.997-3.848-8.668-8.878h-2.923v-4.597h3.148c1.055-4.412 4.432-7.643 8.443-7.643 4.013 0 7.39 3.231 8.444 7.643h-16.887a12.52 12.52 0 0 0-.347 2.916c0 .573.048 1.132.122 1.681h22.837z" fill="#010101"/><path d="M135.079 20.72v4.598h3.333v24.48h9.711V45.2H143.7V31.466c0-5.516 5.171-6.32 5.171-6.32 2.873 0 4.252.573 4.252.573V20.26c-6.033-1.263-9.021 2.184-9.021 2.184v-1.752l-9.022.028zM155.421 20.663v4.77h3.39v24.595h8.908v-4.827h-3.505V31.754c0-7.01 6.838-6.609 6.838-6.609 5.976 0 5.287 5.402 5.287 5.402v19.481h8.85v-4.77h-3.391V31.352c0-6.552 6.666-6.264 6.666-6.264 5.344 0 5.172 5 5.172 5v19.71h8.39v-4.597h-2.644V30.72c0-9.94-9.424-10.737-9.424-10.737-8.045-.468-9.654 4.072-9.654 4.072-1.897-4.106-9.195-4.072-9.195-4.072-4.482 0-6.838 2.865-6.838 2.865v-2.069l-8.85-.115zM219.509 43.405s-2.026 3.103-7.24 2.284c0 0-4.225-.646-4.225-4.784 0 0-.215-4.784 5.862-4.784h7.887v.215s.346 3.664-2.284 7.069zm36.821 1.853V30.433c0-9.023-7.24-10.115-7.24-10.115-7.758-1.206-10.689 2.414-10.689 2.414v-2.126h-5.575v24.652h-5.459v-15.17c0-10.92-11.147-10.016-11.147-10.016-4.942-.156-9.999 2.832-9.999 2.832l2.125 4.195c5.804-3.62 10.172-2.097 10.172-2.097 4.482 1.465 3.275 6.465 3.275 6.465-9.538 0-13.561 1.034-13.561 1.034-6.608 2.701-5.976 8.103-5.976 8.103 0 8.792 8.159 9.769 8.159 9.769 8.333.804 11.206-3.103 11.206-3.103v2.758h16.78V32.214c0-8.448 7.988-7.01 7.988-7.01 4.368 0 4.483 4.712 4.483 4.712v20.112h8.562v-4.77h-3.104z" fill="#010101"/><path d="M17.074 11.267c.604-.259 1.407-.488 1.407-.488.777-.489.46-1.12.46-1.12-.517-2.357-.057-4.972-.057-4.972.402-2.011 3.189-1.896 3.189-1.896 2.988.431 3.247 3.477 3.247 3.477.029 1.35-.632 2.183-.632 2.183-1.207 2.212-.748 3.592-.748 3.592 2.788.575 3.277.69 3.277.69 0 2.671.488 7.096.488 7.126.143 4.396.46 6.406.46 6.406.574 2.76 2.327 4.713 2.327 4.713 1.523 1.523.862 2.873.862 2.873-1.84 1.034-3.39.69-3.39.69-1.179 0-1.064.373-1.064.373 0 3.908.144 4.885.144 4.885.23 2.24.316 3.534.316 3.534.402 2.04.948 2.987.948 2.987 0 2.903-.201 6.696-.201 6.696s0 .603-.057 1.15c-.058.545-.172 2.356-.172 2.356 0 .114.229.374.286.46a63.747 63.747 0 0 1 2.213 2.47c-.603.517-2.93.517-2.93.517-1.552.316-2.702 0-2.702 0-1.091-.632-1.264-2.154-1.264-2.154s-.028.287-.028-.145c0-2.068.114-3.188.114-3.188.373-4.34-.114-8.851-.114-8.851l-.26-1.925c-.344-3.017-1.838-5.89-1.838-5.89-.317-.315-.517.086-.517.086-2.27 4.31-3.505 7.96-3.505 7.96-2.443 6.58-2.012 11.98-2.012 11.98.201.921.287 1.15.287 1.15-.89.23-3.189-.977-3.189-1.062-2.299-1.524-1.236-6.954-1.236-6.954l.748-2.529-4.425-1.839 1.695-11.55 2.586-.23-.575-11.033c.03-1.15.66-1.581.66-1.581-.172-7.441.576-7.93.576-7.93.718-1.35 2.097-2.04 2.097-2.04 1.523-.603 2.529-.977 2.529-.977" fill="#1A4D98"/></g></svg>